<svg xmlns="http://www.w3.org/2000/svg" version="1.1" xmlns:xlink="http://www.w3.org/1999/xlink" xmlns:svgjs="http://svgjs.dev/svgjs" width="1440" height="560" preserveAspectRatio="none" viewBox="0 0 1440 560"><g mask="url(&quot;#SvgjsMask1001&quot;)" fill="none"><path d="M38.77 -34.38L103.72 3.12L103.72 78.12L38.77 115.62L-26.18 78.12L-26.18 3.12zM103.72 78.12L168.68 115.62L168.68 190.62L103.72 228.12L38.77 190.62L38.77 115.62zM233.63 78.12L298.58 115.62L298.58 190.62L233.63 228.12L168.68 190.62L168.68 115.62zM168.68 190.62L233.63 228.12L233.63 303.12L168.68 340.62L103.72 303.12L103.72 228.12zM168.68 415.62L233.63 453.12L233.63 528.12L168.68 565.62L103.72 528.12L103.72 453.12zM363.54 528.12L428.49 565.62L428.49 640.62L363.54 678.12L298.58 640.62L298.58 565.62zM493.45 78.12L558.4 115.62L558.4 190.62L493.45 228.12L428.49 190.62L428.49 115.62zM428.49 415.62L493.45 453.12L493.45 528.12L428.49 565.62L363.54 528.12L363.54 453.12zM493.45 528.12L558.4 565.62L558.4 640.62L493.45 678.12L428.49 640.62L428.49 565.62zM558.4 -34.38L623.35 3.12L623.35 78.12L558.4 115.62L493.45 78.12L493.45 3.12zM623.35 78.12L688.31 115.62L688.31 190.62L623.35 228.12L558.4 190.62L558.4 115.62zM558.4 190.62L623.35 228.12L623.35 303.12L558.4 340.62L493.45 303.12L493.45 228.12zM688.31 -34.38L753.26 3.12L753.26 78.12L688.31 115.62L623.35 78.12L623.35 3.12zM753.26 78.12L818.22 115.62L818.22 190.62L753.26 228.12L688.31 190.62L688.31 115.62zM818.21 190.62L883.17 228.12L883.17 303.12L818.21 340.62L753.26 303.12L753.26 228.12zM883.17 303.12L948.12 340.62L948.12 415.62L883.17 453.12L818.21 415.62L818.21 340.62zM1013.08 78.12L1078.03 115.62L1078.03 190.62L1013.08 228.12L948.12 190.62L948.12 115.62zM948.12 190.62L1013.08 228.12L1013.08 303.12L948.12 340.62L883.17 303.12L883.17 228.12zM1013.08 303.12L1078.03 340.62L1078.03 415.62L1013.08 453.12L948.12 415.62L948.12 340.62zM948.12 415.62L1013.08 453.12L1013.08 528.12L948.12 565.62L883.17 528.12L883.17 453.12zM1142.98 303.12L1207.94 340.62L1207.94 415.62L1142.98 453.12L1078.03 415.62L1078.03 340.62zM1207.94 -34.38L1272.89 3.12L1272.89 78.12L1207.94 115.62L1142.98 78.12L1142.98 3.12zM1207.94 415.62L1272.89 453.12L1272.89 528.12L1207.94 565.62L1142.98 528.12L1142.98 453.12zM1272.89 528.12L1337.84 565.62L1337.84 640.62L1272.89 678.12L1207.94 640.62L1207.94 565.62zM1337.85 -34.38L1402.8 3.12L1402.8 78.12L1337.85 115.62L1272.89 78.12L1272.89 3.12zM1402.8 78.12L1467.75 115.62L1467.75 190.62L1402.8 228.12L1337.85 190.62L1337.85 115.62zM1402.8 528.12L1467.75 565.62L1467.75 640.62L1402.8 678.12L1337.85 640.62L1337.85 565.62zM1532.71 78.12L1597.66 115.62L1597.66 190.62L1532.71 228.12L1467.75 190.62L1467.75 115.62zM1532.71 303.12L1597.66 340.62L1597.66 415.62L1532.71 453.12L1467.75 415.62L1467.75 340.62z" stroke="#03305d" stroke-width="2"></path><path d="M31.27 -34.38 a7.5 7.5 0 1 0 15 0 a7.5 7.5 0 1 0 -15 0zM96.22 3.12 a7.5 7.5 0 1 0 15 0 a7.5 7.5 0 1 0 -15 0zM96.22 78.12 a7.5 7.5 0 1 0 15 0 a7.5 7.5 0 1 0 -15 0zM31.27 115.62 a7.5 7.5 0 1 0 15 0 a7.5 7.5 0 1 0 -15 0zM-33.68 78.12 a7.5 7.5 0 1 0 15 0 a7.5 7.5 0 1 0 -15 0zM-33.68 3.12 a7.5 7.5 0 1 0 15 0 a7.5 7.5 0 1 0 -15 0zM161.18 115.62 a7.5 7.5 0 1 0 15 0 a7.5 7.5 0 1 0 -15 0zM161.18 190.62 a7.5 7.5 0 1 0 15 0 a7.5 7.5 0 1 0 -15 0zM96.22 228.12 a7.5 7.5 0 1 0 15 0 a7.5 7.5 0 1 0 -15 0zM31.27 190.62 a7.5 7.5 0 1 0 15 0 a7.5 7.5 0 1 0 -15 0zM226.13 78.12 a7.5 7.5 0 1 0 15 0 a7.5 7.5 0 1 0 -15 0zM291.08 115.62 a7.5 7.5 0 1 0 15 0 a7.5 7.5 0 1 0 -15 0zM291.08 190.62 a7.5 7.5 0 1 0 15 0 a7.5 7.5 0 1 0 -15 0zM226.13 228.12 a7.5 7.5 0 1 0 15 0 a7.5 7.5 0 1 0 -15 0zM226.13 303.12 a7.5 7.5 0 1 0 15 0 a7.5 7.5 0 1 0 -15 0zM161.18 340.62 a7.5 7.5 0 1 0 15 0 a7.5 7.5 0 1 0 -15 0zM96.22 303.12 a7.5 7.5 0 1 0 15 0 a7.5 7.5 0 1 0 -15 0zM161.18 415.62 a7.5 7.5 0 1 0 15 0 a7.5 7.5 0 1 0 -15 0zM226.13 453.12 a7.5 7.5 0 1 0 15 0 a7.5 7.5 0 1 0 -15 0zM226.13 528.12 a7.5 7.5 0 1 0 15 0 a7.5 7.5 0 1 0 -15 0zM161.18 565.62 a7.5 7.5 0 1 0 15 0 a7.5 7.5 0 1 0 -15 0zM96.22 528.12 a7.5 7.5 0 1 0 15 0 a7.5 7.5 0 1 0 -15 0zM96.22 453.12 a7.5 7.5 0 1 0 15 0 a7.5 7.5 0 1 0 -15 0zM356.04 528.12 a7.5 7.5 0 1 0 15 0 a7.5 7.5 0 1 0 -15 0zM420.99 565.62 a7.5 7.5 0 1 0 15 0 a7.5 7.5 0 1 0 -15 0zM420.99 640.62 a7.5 7.5 0 1 0 15 0 a7.5 7.5 0 1 0 -15 0zM356.04 678.12 a7.5 7.5 0 1 0 15 0 a7.5 7.5 0 1 0 -15 0zM291.08 640.62 a7.5 7.5 0 1 0 15 0 a7.5 7.5 0 1 0 -15 0zM291.08 565.62 a7.5 7.5 0 1 0 15 0 a7.5 7.5 0 1 0 -15 0zM485.95 78.12 a7.5 7.5 0 1 0 15 0 a7.5 7.5 0 1 0 -15 0zM550.9 115.62 a7.5 7.5 0 1 0 15 0 a7.5 7.5 0 1 0 -15 0zM550.9 190.62 a7.5 7.5 0 1 0 15 0 a7.5 7.5 0 1 0 -15 0zM485.95 228.12 a7.5 7.5 0 1 0 15 0 a7.5 7.5 0 1 0 -15 0zM420.99 190.62 a7.5 7.5 0 1 0 15 0 a7.5 7.5 0 1 0 -15 0zM420.99 115.62 a7.5 7.5 0 1 0 15 0 a7.5 7.5 0 1 0 -15 0zM420.99 415.62 a7.5 7.5 0 1 0 15 0 a7.5 7.5 0 1 0 -15 0zM485.95 453.12 a7.5 7.5 0 1 0 15 0 a7.5 7.5 0 1 0 -15 0zM485.95 528.12 a7.5 7.5 0 1 0 15 0 a7.5 7.5 0 1 0 -15 0zM356.04 453.12 a7.5 7.5 0 1 0 15 0 a7.5 7.5 0 1 0 -15 0zM550.9 565.62 a7.5 7.5 0 1 0 15 0 a7.5 7.5 0 1 0 -15 0zM550.9 640.62 a7.5 7.5 0 1 0 15 0 a7.5 7.5 0 1 0 -15 0zM485.95 678.12 a7.5 7.5 0 1 0 15 0 a7.5 7.5 0 1 0 -15 0zM550.9 -34.38 a7.5 7.5 0 1 0 15 0 a7.5 7.5 0 1 0 -15 0zM615.85 3.12 a7.5 7.5 0 1 0 15 0 a7.5 7.5 0 1 0 -15 0zM615.85 78.12 a7.5 7.5 0 1 0 15 0 a7.5 7.5 0 1 0 -15 0zM485.95 3.12 a7.5 7.5 0 1 0 15 0 a7.5 7.5 0 1 0 -15 0zM680.81 115.62 a7.5 7.5 0 1 0 15 0 a7.5 7.5 0 1 0 -15 0zM680.81 190.62 a7.5 7.5 0 1 0 15 0 a7.5 7.5 0 1 0 -15 0zM615.85 228.12 a7.5 7.5 0 1 0 15 0 a7.5 7.5 0 1 0 -15 0zM615.85 303.12 a7.5 7.5 0 1 0 15 0 a7.5 7.5 0 1 0 -15 0zM550.9 340.62 a7.5 7.5 0 1 0 15 0 a7.5 7.5 0 1 0 -15 0zM485.95 303.12 a7.5 7.5 0 1 0 15 0 a7.5 7.5 0 1 0 -15 0zM680.81 -34.38 a7.5 7.5 0 1 0 15 0 a7.5 7.5 0 1 0 -15 0zM745.76 3.12 a7.5 7.5 0 1 0 15 0 a7.5 7.5 0 1 0 -15 0zM745.76 78.12 a7.5 7.5 0 1 0 15 0 a7.5 7.5 0 1 0 -15 0zM810.72 115.62 a7.5 7.5 0 1 0 15 0 a7.5 7.5 0 1 0 -15 0zM810.72 190.62 a7.5 7.5 0 1 0 15 0 a7.5 7.5 0 1 0 -15 0zM745.76 228.12 a7.5 7.5 0 1 0 15 0 a7.5 7.5 0 1 0 -15 0zM810.71 190.62 a7.5 7.5 0 1 0 15 0 a7.5 7.5 0 1 0 -15 0zM875.67 228.12 a7.5 7.5 0 1 0 15 0 a7.5 7.5 0 1 0 -15 0zM875.67 303.12 a7.5 7.5 0 1 0 15 0 a7.5 7.5 0 1 0 -15 0zM810.71 340.62 a7.5 7.5 0 1 0 15 0 a7.5 7.5 0 1 0 -15 0zM745.76 303.12 a7.5 7.5 0 1 0 15 0 a7.5 7.5 0 1 0 -15 0zM940.62 340.62 a7.5 7.5 0 1 0 15 0 a7.5 7.5 0 1 0 -15 0zM940.62 415.62 a7.5 7.5 0 1 0 15 0 a7.5 7.5 0 1 0 -15 0zM875.67 453.12 a7.5 7.5 0 1 0 15 0 a7.5 7.5 0 1 0 -15 0zM810.71 415.62 a7.5 7.5 0 1 0 15 0 a7.5 7.5 0 1 0 -15 0zM1005.58 78.12 a7.5 7.5 0 1 0 15 0 a7.5 7.5 0 1 0 -15 0zM1070.53 115.62 a7.5 7.5 0 1 0 15 0 a7.5 7.5 0 1 0 -15 0zM1070.53 190.62 a7.5 7.5 0 1 0 15 0 a7.5 7.5 0 1 0 -15 0zM1005.58 228.12 a7.5 7.5 0 1 0 15 0 a7.5 7.5 0 1 0 -15 0zM940.62 190.62 a7.5 7.5 0 1 0 15 0 a7.5 7.5 0 1 0 -15 0zM940.62 115.62 a7.5 7.5 0 1 0 15 0 a7.5 7.5 0 1 0 -15 0zM1005.58 303.12 a7.5 7.5 0 1 0 15 0 a7.5 7.5 0 1 0 -15 0zM1070.53 340.62 a7.5 7.5 0 1 0 15 0 a7.5 7.5 0 1 0 -15 0zM1070.53 415.62 a7.5 7.5 0 1 0 15 0 a7.5 7.5 0 1 0 -15 0zM1005.58 453.12 a7.5 7.5 0 1 0 15 0 a7.5 7.5 0 1 0 -15 0zM1005.58 528.12 a7.5 7.5 0 1 0 15 0 a7.5 7.5 0 1 0 -15 0zM940.62 565.62 a7.5 7.5 0 1 0 15 0 a7.5 7.5 0 1 0 -15 0zM875.67 528.12 a7.5 7.5 0 1 0 15 0 a7.5 7.5 0 1 0 -15 0zM1135.48 303.12 a7.5 7.5 0 1 0 15 0 a7.5 7.5 0 1 0 -15 0zM1200.44 340.62 a7.5 7.5 0 1 0 15 0 a7.5 7.5 0 1 0 -15 0zM1200.44 415.62 a7.5 7.5 0 1 0 15 0 a7.5 7.5 0 1 0 -15 0zM1135.48 453.12 a7.5 7.5 0 1 0 15 0 a7.5 7.5 0 1 0 -15 0zM1200.44 -34.38 a7.5 7.5 0 1 0 15 0 a7.5 7.5 0 1 0 -15 0zM1265.39 3.12 a7.5 7.5 0 1 0 15 0 a7.5 7.5 0 1 0 -15 0zM1265.39 78.12 a7.5 7.5 0 1 0 15 0 a7.5 7.5 0 1 0 -15 0zM1200.44 115.62 a7.5 7.5 0 1 0 15 0 a7.5 7.5 0 1 0 -15 0zM1135.48 78.12 a7.5 7.5 0 1 0 15 0 a7.5 7.5 0 1 0 -15 0zM1135.48 3.12 a7.5 7.5 0 1 0 15 0 a7.5 7.5 0 1 0 -15 0zM1265.39 453.12 a7.5 7.5 0 1 0 15 0 a7.5 7.5 0 1 0 -15 0zM1265.39 528.12 a7.5 7.5 0 1 0 15 0 a7.5 7.5 0 1 0 -15 0zM1200.44 565.62 a7.5 7.5 0 1 0 15 0 a7.5 7.5 0 1 0 -15 0zM1135.48 528.12 a7.5 7.5 0 1 0 15 0 a7.5 7.5 0 1 0 -15 0zM1330.34 565.62 a7.5 7.5 0 1 0 15 0 a7.5 7.5 0 1 0 -15 0zM1330.34 640.62 a7.5 7.5 0 1 0 15 0 a7.5 7.5 0 1 0 -15 0zM1265.39 678.12 a7.5 7.5 0 1 0 15 0 a7.5 7.5 0 1 0 -15 0zM1200.44 640.62 a7.5 7.5 0 1 0 15 0 a7.5 7.5 0 1 0 -15 0zM1330.35 -34.38 a7.5 7.5 0 1 0 15 0 a7.5 7.5 0 1 0 -15 0zM1395.3 3.12 a7.5 7.5 0 1 0 15 0 a7.5 7.5 0 1 0 -15 0zM1395.3 78.12 a7.5 7.5 0 1 0 15 0 a7.5 7.5 0 1 0 -15 0zM1330.35 115.62 a7.5 7.5 0 1 0 15 0 a7.5 7.5 0 1 0 -15 0zM1460.25 115.62 a7.5 7.5 0 1 0 15 0 a7.5 7.5 0 1 0 -15 0zM1460.25 190.62 a7.5 7.5 0 1 0 15 0 a7.5 7.5 0 1 0 -15 0zM1395.3 228.12 a7.5 7.5 0 1 0 15 0 a7.5 7.5 0 1 0 -15 0zM1330.35 190.62 a7.5 7.5 0 1 0 15 0 a7.5 7.5 0 1 0 -15 0zM1395.3 528.12 a7.5 7.5 0 1 0 15 0 a7.5 7.5 0 1 0 -15 0zM1460.25 565.62 a7.5 7.5 0 1 0 15 0 a7.5 7.5 0 1 0 -15 0zM1460.25 640.62 a7.5 7.5 0 1 0 15 0 a7.5 7.5 0 1 0 -15 0zM1395.3 678.12 a7.5 7.5 0 1 0 15 0 a7.5 7.5 0 1 0 -15 0zM1330.35 640.62 a7.5 7.5 0 1 0 15 0 a7.5 7.5 0 1 0 -15 0zM1330.35 565.62 a7.5 7.5 0 1 0 15 0 a7.5 7.5 0 1 0 -15 0zM1525.21 78.12 a7.5 7.5 0 1 0 15 0 a7.5 7.5 0 1 0 -15 0zM1590.16 115.62 a7.5 7.5 0 1 0 15 0 a7.5 7.5 0 1 0 -15 0zM1590.16 190.62 a7.5 7.5 0 1 0 15 0 a7.5 7.5 0 1 0 -15 0zM1525.21 228.12 a7.5 7.5 0 1 0 15 0 a7.5 7.5 0 1 0 -15 0zM1525.21 303.12 a7.5 7.5 0 1 0 15 0 a7.5 7.5 0 1 0 -15 0zM1590.16 340.62 a7.5 7.5 0 1 0 15 0 a7.5 7.5 0 1 0 -15 0zM1590.16 415.62 a7.5 7.5 0 1 0 15 0 a7.5 7.5 0 1 0 -15 0zM1525.21 453.12 a7.5 7.5 0 1 0 15 0 a7.5 7.5 0 1 0 -15 0zM1460.25 415.62 a7.5 7.5 0 1 0 15 0 a7.5 7.5 0 1 0 -15 0zM1460.25 340.62 a7.5 7.5 0 1 0 15 0 a7.5 7.5 0 1 0 -15 0z" fill="#03305d"></path><path d="M69.24 195.75L112.55 220.75L112.55 270.75L69.24 295.75L25.94 270.75L25.94 220.75zM69.24 495.75L112.55 520.75L112.55 570.75L69.24 595.75L25.94 570.75L25.94 520.75zM155.85 195.75L199.15 220.75L199.15 270.75L155.85 295.75L112.55 270.75L112.55 220.75zM199.15 -29.25L242.45 -4.25L242.45 45.75L199.15 70.75L155.85 45.75L155.85 -4.25zM242.45 195.75L285.75 220.75L285.75 270.75L242.45 295.75L199.15 270.75L199.15 220.75zM329.06 345.75L372.36 370.75L372.36 420.75L329.06 445.75L285.75 420.75L285.75 370.75zM372.36 270.75L415.66 295.75L415.66 345.75L372.36 370.75L329.06 345.75L329.06 295.75zM372.36 420.75L415.66 445.75L415.66 495.75L372.36 520.75L329.06 495.75L329.06 445.75zM502.27 195.75L545.57 220.75L545.57 270.75L502.27 295.75L458.97 270.75L458.97 220.75zM502.27 345.75L545.57 370.75L545.57 420.75L502.27 445.75L458.97 420.75L458.97 370.75zM545.57 420.75L588.87 445.75L588.87 495.75L545.57 520.75L502.27 495.75L502.27 445.75zM632.18 -29.25L675.48 -4.25L675.48 45.75L632.18 70.75L588.87 45.75L588.87 -4.25zM675.48 345.75L718.78 370.75L718.78 420.75L675.48 445.75L632.18 420.75L632.18 370.75zM718.78 270.75L762.08 295.75L762.08 345.75L718.78 370.75L675.48 345.75L675.48 295.75zM1108.5 495.75L1151.81 520.75L1151.81 570.75L1108.5 595.75L1065.2 570.75L1065.2 520.75zM1238.41 420.75L1281.71 445.75L1281.71 495.75L1238.41 520.75L1195.11 495.75L1195.11 445.75zM1368.32 45.75L1411.62 70.75L1411.62 120.75L1368.32 145.75L1325.02 120.75L1325.02 70.75zM1325.02 270.75L1368.32 295.75L1368.32 345.75L1325.02 370.75L1281.71 345.75L1281.71 295.75z" stroke="rgba(6, 80, 156, 0.93)" stroke-width="2"></path></g><defs><mask id="SvgjsMask1001"><rect width="1440" height="560" fill="#ffffff"></rect></mask></defs></svg>