<?xml version="1.0" standalone="no"?>
<!DOCTYPE svg PUBLIC "-//W3C//DTD SVG 20010904//EN"
 "http://www.w3.org/TR/2001/REC-SVG-20010904/DTD/svg10.dtd">
<svg version="1.0" xmlns="http://www.w3.org/2000/svg"
 width="700.000000pt" height="700.000000pt" viewBox="0 0 700.000000 700.000000"
 preserveAspectRatio="xMidYMid meet">
<metadata>
Created by potrace 1.14, written by Peter Selinger 2001-2017
</metadata>
<g transform="translate(0.000000,700.000000) scale(0.100000,-0.100000)"
fill="#000000" stroke="none">
<path d="M1887 5893 c-1 -1 -36 -4 -76 -7 -213 -17 -460 -83 -635 -168 -81
-41 -213 -128 -253 -168 -43 -42 -46 -101 -8 -143 14 -15 31 -27 37 -27 6 0
-8 -17 -31 -37 -34 -30 -44 -47 -48 -80 -5 -39 -2 -46 30 -78 l35 -35 -27 -19
c-22 -16 -26 -27 -26 -66 0 -87 72 -106 162 -42 118 85 375 185 521 203 19 3
53 9 76 14 126 28 461 31 646 5 222 -30 380 -73 570 -153 146 -62 280 -146
378 -235 38 -36 46 -39 80 -34 42 7 72 38 72 74 0 30 -27 83 -43 84 -6 0 -1 6
13 12 77 36 92 123 30 182 -36 35 -37 41 -5 49 44 11 71 75 53 127 -12 36
-126 144 -223 211 -177 124 -419 226 -648 274 -190 40 -336 55 -540 58 -76 1
-139 0 -140 -1z"/>
<path d="M1949 4939 c-427 -33 -821 -288 -1031 -669 -68 -123 -132 -329 -145
-467 -13 -131 -5 -300 17 -399 7 -27 13 -56 15 -64 10 -48 55 -166 88 -235
149 -308 427 -552 749 -659 124 -41 226 -58 373 -62 162 -3 266 9 394 47 74
22 75 23 184 73 252 115 487 349 609 606 28 59 76 186 83 220 24 117 24 116
78 146 45 24 63 28 132 29 67 0 88 -4 130 -27 66 -34 89 -61 91 -106 14 -315
144 -621 352 -835 62 -64 54 -62 168 -33 66 16 99 23 154 32 19 3 41 7 48 9
23 8 197 19 302 18 199 0 366 -27 595 -94 58 -17 179 -65 264 -106 l74 -35 60
42 c83 59 90 65 179 155 70 70 174 211 221 300 135 254 179 602 112 882 -120
496 -498 862 -1000 968 -159 34 -404 27 -570 -16 -203 -53 -412 -171 -566
-321 -84 -81 -177 -197 -215 -268 -10 -19 -24 -42 -30 -50 -6 -8 -27 -54 -46
-101 -28 -70 -37 -85 -50 -78 -8 4 -48 17 -89 28 -110 31 -234 33 -346 6 -19
-5 -23 1 -33 52 -24 122 -99 310 -159 399 -17 25 -31 47 -31 50 0 11 -113 145
-167 199 -153 151 -354 267 -556 320 -119 31 -135 34 -237 41 -47 3 -89 6 -95
8 -5 1 -53 -1 -106 -5z m286 -533 c153 -39 316 -144 410 -264 290 -369 195
-901 -205 -1140 -399 -239 -923 -66 -1103 363 -53 126 -70 251 -53 393 23 196
136 391 301 519 76 58 229 124 340 146 52 10 245 -1 310 -17z m2892 -230 c15
-4 37 -8 48 -10 11 -2 43 -12 70 -21 321 -110 530 -415 519 -754 -12 -337
-246 -630 -574 -718 -70 -18 -272 -25 -344 -10 -253 49 -477 241 -570 487 -36
96 -41 132 -41 275 1 145 22 240 78 345 117 218 335 377 557 405 30 4 56 8 58
10 5 5 169 -3 199 -9z"/>
<path d="M4679 2138 c-67 -180 -177 -326 -332 -442 -91 -67 -243 -137 -332
-152 -16 -2 -37 -7 -46 -10 -111 -33 -334 -15 -497 40 l-70 24 -32 -91 c-18
-51 -47 -132 -66 -182 -19 -49 -34 -93 -34 -97 0 -12 208 -74 290 -87 41 -7
86 -15 100 -17 33 -5 213 -5 265 1 89 10 127 16 152 26 14 5 28 8 30 5 5 -4
140 40 198 65 17 7 32 13 35 14 23 8 57 26 130 68 272 160 472 399 585 700 23
63 24 68 8 73 -10 3 -58 21 -108 39 -140 52 -235 85 -244 85 -5 0 -19 -28 -32
-62z"/>
</g>
</svg>
